<?xml version="1.0" encoding="UTF-8"?>
<svg id="Layer_1" xmlns="http://www.w3.org/2000/svg" version="1.1" viewBox="0 0 512 512">
  <!-- Generator: Adobe Illustrator 29.1.0, SVG Export Plug-In . SVG Version: 2.1.0 Build 142)  -->
  <defs>
    <style>
      .st0 {
        fill: #fdfdfd;
        stroke: #000;
        stroke-linecap: round;
        stroke-linejoin: round;
        stroke-width: 6px;
      }
    </style>
  </defs>
  <g id="Layer_11">
    <path class="st0" d="M367.3,76.3c-44.9,0-72.2,32.1-72.2,72.2s14.4,49.7,35.3,61v9.6s0,84.5-72.2,84.5-61,8-72.2,16v-180.8c20.9-12.8,35.3-35.3,35.3-61,0-40.1-32.1-72.2-72.2-72.2s-72.2,32.1-72.2,72.2,14.4,49.7,35.3,61v234.3c-20.9,12.8-35.3,35.3-35.3,61,0,40.1,32.1,72.2,72.2,72.2s72.2-32.1,72.2-72.2-19.3-43.3-19.3-48.1c11.2-11.2,27.3-20.9,54.6-20.9,141.2,0,142.8-142.8,142.8-142.8v-9.6c20.9-12.8,35.3-35.3,35.3-61,0-40.1-22.5-75.4-67.4-75.4h0ZM149,41c19.3,0,35.3,16,35.3,35.3s-16,35.3-35.3,35.3-35.3-16-35.3-35.3,16-35.3,35.3-35.3ZM149,474.2c-19.3,0-35.3-16-35.3-35.3s16-35.3,35.3-35.3,35.3,16,35.3,35.3-16,35.3-35.3,35.3ZM367.3,183.8c-19.3,0-35.3-16-35.3-35.3s16-35.3,35.3-35.3,35.3,16,35.3,35.3-16,35.3-35.3,35.3Z"/>
  </g>
</svg>