<?xml version="1.0" encoding="UTF-8"?>
<svg id="Layer_1" xmlns="http://www.w3.org/2000/svg" version="1.1" viewBox="0 0 32 32">
  <!-- Generator: Adobe Illustrator 29.1.0, SVG Export Plug-In . SVG Version: 2.1.0 Build 142)  -->
  <defs>
    <style>
      .st0 {
        fill: #fdfdfd;
        stroke: #000;
        stroke-miterlimit: 10;
        stroke-width: 0px;
      }
    </style>
  </defs>
  <path class="st0" d="M22.7,4.9c-2.5,0-4.5,2-4.5,4.5s.9,3.1,2.2,3.8v.6s0,4.5-4.5,4.5-3.3.4-4.5,1v-10.5c1.3-.8,2.2-2.2,2.2-3.8,0-2.5-2-4.5-4.5-4.5s-4.5,2-4.5,4.5.9,3.1,2.2,3.8v14.6c-1.3.8-2.2,2.2-2.2,3.8,0,2.5,2,4.5,4.5,4.5s4.5-2,4.5-4.5-.5-2.2-1.2-3c.6-.8,1.7-1.4,3.4-1.4,8.8,0,8.9-8.9,8.9-8.9v-.6c1.3-.8,2.2-2.2,2.2-3.8,0-2.5-2-4.5-4.5-4.5h0ZM9.3,2.7c1.2,0,2.2,1,2.2,2.2s-1,2.2-2.2,2.2-2.2-1-2.2-2.2,1-2.2,2.2-2.2ZM9.3,29.4c-1.2,0-2.2-1-2.2-2.2s1-2.2,2.2-2.2,2.2,1,2.2,2.2-1,2.2-2.2,2.2ZM22.7,11.6c-1.2,0-2.2-1-2.2-2.2s1-2.2,2.2-2.2,2.2,1,2.2,2.2-1,2.2-2.2,2.2Z"/>
</svg>